/* XPM */
static char *error_xpm[] = {
/* columns rows colors chars-per-pixel */
"16 16 134 2",
"   c #790000",
".  c #797879",
"X  c #880505",
"o  c #940101",
"O  c #960000",
"+  c #990101",
"@  c #9D0000",
"#  c #971515",
"$  c #9C1B1B",
"%  c #A10303",
"&  c #AA0000",
"*  c #AB0101",
"=  c #AD0101",
"-  c #B30000",
";  c #B20101",
":  c #B40202",
">  c #B60404",
",  c #B80000",
"<  c #BA0101",
"1  c #893333",
"2  c #A12425",
"3  c #A7282A",
"4  c #AD292B",
"5  c #BD2020",
"6  c #BD2C2C",
"7  c #BC2D2D",
"8  c #C10000",
"9  c #C30807",
"0  c #C60808",
"q  c #C91415",
"w  c #CC1918",
"e  c #D71E1D",
"r  c #C12B2B",
"t  c #CA2F2F",
"y  c #C23E3E",
"u  c #D13333",
"i  c #D73535",
"p  c #DD3838",
"a  c #BE4343",
"s  c #B25658",
"d  c #C24F51",
"f  c #C54F51",
"g  c #CA4F50",
"h  c #CE5657",
"j  c #C05659",
"k  c #CD5F5F",
"l  c #D95D5F",
"z  c #D15F61",
"x  c #C76163",
"c  c #D66567",
"v  c #D56667",
"b  c #DC6B6B",
"n  c #DB6E6D",
"m  c #CD7072",
"M  c #D67171",
"N  c #D3797C",
"B  c #E46B6C",
"V  c #E66D6D",
"C  c #E6797A",
"Z  c #C47E84",
"A  c #8A8A8C",
"S  c #8E8D8F",
"D  c #8F8E8F",
"F  c #8F8E90",
"G  c #97979B",
"H  c #BE9EA2",
"J  c #A2A1A3",
"K  c #A0A1A5",
"L  c #A3A2A4",
"P  c #ACACAE",
"I  c #ADACAF",
"U  c #AEAEAF",
"Y  c #AFAEB0",
"T  c #B0AFB1",
"R  c #BCAFB4",
"E  c #BDB0B6",
"W  c #BEB2B7",
"Q  c #B7B9BE",
"!  c #C78185",
"~  c #C88184",
"^  c #CB8585",
"/  c #C58488",
"(  c #C5888C",
")  c #CF8C8C",
"_  c #D08080",
"`  c #D88588",
"'  c #D08F8F",
"]  c #CA9094",
"[  c #D49191",
"{  c #DA9090",
"}  c #D39D9D",
"|  c #E78282",
" . c #F18D8D",
".. c #E79D9D",
"X. c #CD9EA2",
"o. c #C8A5AA",
"O. c #D2A1A6",
"+. c #D5A7AC",
"@. c #D5ABAB",
"#. c #D0ABAF",
"$. c #DCA8A8",
"%. c #C1B6BC",
"&. c #CFBDBD",
"*. c #D1BDBD",
"=. c #E9A0A0",
"-. c #E3B6B6",
";. c #EEB6B6",
":. c #E8BBBB",
">. c #D7C7C7",
",. c #C8C9D0",
"<. c #D2D1D4",
"1. c #D4D3D5",
"2. c #D5D3D7",
"3. c #D6D5D7",
"4. c #DCD2D2",
"5. c #ECD7D7",
"6. c #E4D9D9",
"7. c #F7DDDD",
"8. c #DCE4E5",
"9. c #DAF7F7",
"0. c #E1F4F4",
"q. c #E3F5F7",
"w. c #E5F5F5",
"e. c #E8F6F6",
"r. c #E6F8F8",
"t. c #E5FAFA",
"y. c #E6FFFF",
"u. c #E9FFFF",
"i. c #ECFFFF",
"p. c #F0F8F8",
"a. c #F1FFFF",
"s. c #F9FFFF",
"d. c #FFFFFF",
"f. c None",
/* pixels */
"f.f.f.f.3.Y F . . F Y 3.f.f.f.f.",
"f.f.f.T A L Q ,.,.Q L A Y f.f.f.",
"f.f.L G %.+.` c z m ] W G L f.f.",
"f.Y G #.B  .e p i w n l o.G Y f.",
"2.A %.C 7.d.| 0 9 M u.6.c W A 2.",
"U L O.V =.d.d.b k q.a.' 1 ( L U ",
"F Q N q u ..s.p.8.t.'   O s Q F ",
". ,.h t - > { 0.e.[   @ - 7 ,.. ",
". ,.h - & a } t.q.$.# & = 6 ,.. ",
"S Q x & 5 @.u.*.*.9.-.$ < d Q D ",
"P K / y @.u.>.  O 4.a.;.X ! L U ",
"1.A W s N :.  @ - % 5.^ 2 R A 1.",
"f.U G H 4 & @ - - 8 + 3 X.G P f.",
"f.f.J G R Z d r r f ! R G J f.f.",
"f.f.f.P A L Q ,.,.Q K A U f.f.f.",
"f.f.f.f.1.U S . . S P 1.f.f.f.f."
};
