/* XPM */
static char *warning_xpm[] = {
/* columns rows colors chars-per-pixel */
"16 15 79 1",
"  c #000000",
". c #70671B",
"X c #A98C0E",
"o c #CAA813",
"O c #CBA914",
"+ c #CBAA15",
"@ c #CDAB15",
"# c #CDAC16",
"$ c #CFAE17",
"% c #CEAF26",
"& c #D5B920",
"* c #D6BB23",
"= c #D9BF25",
"- c #D1B435",
"; c #D1B436",
": c #F0C011",
"> c #F0C112",
", c #F0C113",
"< c #F0C214",
"1 c #F0C315",
"2 c #F1C415",
"3 c #F1C416",
"4 c #F1C517",
"5 c #F1C618",
"6 c #F1C81A",
"7 c #F2CA1D",
"8 c #F2CB1E",
"9 c #DBC228",
"0 c #DDC62B",
"q c #DFC62A",
"w c #DDC62C",
"e c #E4C320",
"r c #E3C524",
"t c #E4C625",
"y c #E9C924",
"u c #E0C729",
"i c #F1CC20",
"p c #F2CD21",
"a c #F3D125",
"s c #F4D226",
"d c #F4D327",
"f c #F4D62B",
"g c #F5D72C",
"h c #F5D72D",
"j c #F5D92F",
"k c #F3DA32",
"l c #F5DB31",
"z c #F4DB33",
"x c #F7E23A",
"c c #F7E33B",
"v c #F7E33C",
"b c #F7E43D",
"n c #F5E53F",
"m c #F8E63E",
"M c #D3B946",
"N c #F1E544",
"B c #F3E847",
"V c #F6EA46",
"C c #F6EA47",
"Z c #F9EA44",
"A c #F4EA48",
"S c #F5EC4A",
"D c #F9EE48",
"F c #FAEF49",
"G c #FAF04A",
"H c #FAF14D",
"J c #FAF24E",
"K c #FBF450",
"L c #FBF551",
"P c #FBF65A",
"I c #DCC86F",
"U c #DFCD80",
"Y c #E3D38E",
"T c #E5D79C",
"R c #E9DDAB",
"E c #EDE2BB",
"W c #F1E9C9",
"Q c #F2EEE2",
"! c None",
/* pixels */
"!!!!!!W%%W!!!!!!",
"!!!!!!-*0;!!!!!!",
"!!!!!EONAOE!!!!!",
"!!!!!-*KKw-!!!!!",
"!!!!RoBKLSOR!!!!",
"!!!!-=P  Lw-!!!!",
"!!!TOAK  JAOT!!!",
"!!!-9JJ  FF0-!!!",
"!!YOVGD  ZZNOY!!",
"!!-umvx..xxxu-!!",
"!U#ljhffhljllOU!",
"Q-tap77  paaat-Q",
"I$p6333  5577pOI",
"-y53,:,,,,3333e-",
"MXXXXXXXXXXXXXXM"
};
